<svg width="36" height="36" viewBox="0 0 36 36" fill="none" xmlns="http://www.w3.org/2000/svg">
<path fill-rule="evenodd" clip-rule="evenodd" d="M14.9917 18.0018L7.32154 22.488L1.24161 19.6971L-0.00646973 22.4426L4.14273 24.3473L1.86044 25.6821L3.34588 28.2886L5.62778 26.9539L5.18144 31.5457L8.15251 31.8235L8.80659 25.0947L16.4804 20.6063V29.6292L11.0505 33.5702L12.8127 35.9981L16.4804 33.3361V36H19.4804V33.336L23.1483 35.9981L24.9105 33.5702L19.4804 29.6291V20.6272L27.1713 25.1255L27.8255 31.855L30.7966 31.5772L30.3501 26.9847L32.6325 28.3197L34.118 25.7133L31.8359 24.3785L35.9845 22.4742L34.7364 19.7287L28.6571 22.5193L20.9335 18.0018L28.6333 13.4983L34.7527 16.3073L36.0008 13.5618L31.8121 11.639L34.121 10.2886L32.6355 7.68213L30.3708 9.00675L30.8129 4.45871L27.8418 4.18093L27.192 10.866L19.4804 15.3764V6.40132L24.9453 2.43491L23.1832 0.00698921L19.4804 2.69444V0H16.4804V2.64368L12.8475 0.00698921L11.0854 2.43491L16.4804 6.35057V15.3973L8.83016 10.9227L8.17179 4.14974L5.20071 4.42752L5.65135 9.06347L3.34287 7.71326L1.85744 10.3197L4.1221 11.6443L0.0128079 13.5306L1.26088 16.2761L7.30091 13.5035L14.9917 18.0018Z" fill="white"/>
</svg>
